# xmcd
#
# Track frame offsets:
#	150
#	15430
#	29165
#	43613
#	58220
#	72433
#	86746
#	99242
#	112948
#	127972
#
# Disc length: 1898 seconds
#
# Revision: 0
# Processed by: cddbd v1.5.2PL0 Copyright (c) Steve Scherf et al.
# Submitted via: EasyCDDAExtractor 16.0.6.1
#
DISCID=8107680a
DTITLE=Συλλογικός δίσκος - Λαϊκό τραγούδι 1954-1967, 1957-4
DYEAR=2008
DGENRE=Λαϊκή
TTITLE0=Γαβαλάς Πάνος - Ο μαχαραγιάς [Σταύρος Τζουανάκος-Νίκος Γκούμας]
TTITLE1=Λύδια Γιώτα-Καζααντζίδης Στέλιος - Δίχως μάννα και πατέρα [Μπάμπης Μπα
TTITLE1=κάλης]
TTITLE2=Πάνου Πόλυ-Κυριαζής Γιάννης - Όσοι μ' ακούν να τραγουδώ [Μπάμ. Μπακάλη
TTITLE2=ς-Ευτ. Παπαγιαννοπούλου]
TTITLE3=Καζαντζίδης Στέλιος-Λύδια Γιώτα - Είδα μιά μάννα [Μπάμπης Μπακάλης-Δημ
TTITLE3=ήτρης Γκούτης]
TTITLE4=Λύδια Γιώτα - Μιλάω με τα κύματα [Στέλιος Χρυσίνης]
TTITLE5=Μπιθικώτσης Γρηγόρης-Μευσούτης Λουκάς - Η ρόδα έχει τυχερά [Στέλιος Χρ
TTITLE5=υσίνης-Κώστας Ζήτης]
TTITLE6=Λύδια Γιώτα - Η μέλισσα [Μανώλης Χρυσαφάκης]
TTITLE7=Καζαντζίδης Στέλιος - Καλό ταξείδι [Μπάμπης Μπακάλης]
TTITLE8=Γαβαλάς Πάνος-Γκίκα Βούλα - Ο μοναχογιός [Απόστολος Χάρμας]
TTITLE9=Πάνου Πόλυ - Κακούργα τύχη [Γιώργος Μητσάκης]
EXTD=
EXTT0=
EXTT1=
EXTT2=
EXTT3=
EXTT4=
EXTT5=
EXTT6=
EXTT7=
EXTT8=
EXTT9=
PLAYORDER=
